<svg xmlns="http://www.w3.org/2000/svg" viewBox="0 0 64 64" width="64" height="64" role="img" aria-label="Terramentor"><rect x="0" y="0" width="64" height="64" rx="14.72" fill="#0b1220"/><g transform="translate(9.394 9.019) scale(0.121)" fill="#0b1220" stroke="#e2e8f0" stroke-width="28.052" stroke-linejoin="round" stroke-linecap="round"><clipPath id="tm-cull-kw50hv"><path clip-rule="evenodd" d="M-400 -400 H800 V800 H-400 Z M368.02 8.09 L186.51 98.85 L186.51 280.36 L368.02 189.6 Z M5 8.09 L186.51 98.85 L186.51 280.36 L5 189.6 Z"/></clipPath><g clip-path="url(#tm-cull-kw50hv)"><circle cx="186.51" cy="189.6" r="181.51"/><g fill="none"><ellipse cx="186.51" cy="189.6" rx="90.76" ry="181.51"/><line x1="334.58" y1="86.59" x2="38.44" y2="86.59"/><line x1="335.38" y1="292.61" x2="38.72" y2="294.33"/><line x1="368.02" y1="189.6" x2="5" y2="189.6"/></g></g><polygon points="368.02 8.09 186.51 98.85 186.51 280.36 368.02 189.6"/><polygon points="5 8.09 186.51 98.85 186.51 280.36 5 189.6"/><line fill="none" x1="186.51" y1="8.09" x2="186.51" y2="371.11"/></g></svg>